G04 #@! TF.FileFunction,Legend,Bot*
%FSLAX46Y46*%
G04 Gerber Fmt 4.6, Leading zero omitted, Abs format (unit mm)*
G04 Created by KiCad (PCBNEW 4.0.2-stable) date 27/06/2016 23:08:48*
%MOMM*%
G01*
G04 APERTURE LIST*
%ADD10C,0.100000*%
%ADD11C,0.066040*%
%ADD12C,0.254000*%
%ADD13C,0.127000*%
%ADD14C,0.050800*%
%ADD15C,0.088900*%
G04 APERTURE END LIST*
D10*
D11*
X97880000Y-101087500D02*
X97880000Y-100452500D01*
X97880000Y-100452500D02*
X99150000Y-100452500D01*
X99150000Y-101087500D02*
X99150000Y-100452500D01*
X97880000Y-101087500D02*
X99150000Y-101087500D01*
X97880000Y-98547500D02*
X97880000Y-97912500D01*
X97880000Y-97912500D02*
X99150000Y-97912500D01*
X99150000Y-98547500D02*
X99150000Y-97912500D01*
X97880000Y-98547500D02*
X99150000Y-98547500D01*
D12*
X111372480Y-95532520D02*
X111372480Y-103467480D01*
X108040000Y-100770000D02*
X102325000Y-100770000D01*
X102325000Y-100770000D02*
X102325000Y-98230000D01*
X102325000Y-98230000D02*
X108040000Y-98230000D01*
X111372480Y-103467480D02*
X108040000Y-103467480D01*
X108040000Y-103467480D02*
X108040000Y-102675000D01*
X108040000Y-102675000D02*
X108040000Y-100770000D01*
X108040000Y-98230000D02*
X108040000Y-96325000D01*
X108040000Y-96325000D02*
X108040000Y-95532520D01*
X108040000Y-95532520D02*
X111372480Y-95532520D01*
X108040000Y-102675000D02*
X108675000Y-102675000D01*
X109945000Y-101405000D02*
X109945000Y-97595000D01*
X108675000Y-96325000D02*
X108040000Y-96325000D01*
X108040000Y-103467480D02*
X99785000Y-103467480D01*
X99785000Y-103467480D02*
X99785000Y-95532520D01*
X99785000Y-95532520D02*
X108040000Y-95532520D01*
X99785000Y-102357500D02*
X99150000Y-102357500D01*
X99150000Y-102357500D02*
X97562500Y-102357500D01*
X97562500Y-96642500D02*
X99150000Y-96642500D01*
X99150000Y-96642500D02*
X99785000Y-96642500D01*
X99150000Y-102357500D02*
X99150000Y-101405000D01*
D13*
X99150000Y-101405000D02*
X99150000Y-100135000D01*
D12*
X99150000Y-100135000D02*
X99150000Y-98865000D01*
D13*
X99150000Y-98865000D02*
X99150000Y-97595000D01*
D12*
X99150000Y-97595000D02*
X99150000Y-96642500D01*
X99150000Y-101405000D02*
X97816500Y-101405000D01*
X97562500Y-101659000D02*
X97562500Y-102357500D01*
X99150000Y-100135000D02*
X97816500Y-100135000D01*
X99150000Y-98865000D02*
X97816500Y-98865000D01*
X97562500Y-99119000D02*
X97562500Y-99881000D01*
X99150000Y-97595000D02*
X97816500Y-97595000D01*
X97562500Y-97341000D02*
X97562500Y-96642500D01*
D14*
X111372480Y-103310000D02*
X109467480Y-102832480D01*
X109467480Y-102832480D02*
X111372480Y-102357500D01*
X111372480Y-102357500D02*
X111372480Y-103310000D01*
D12*
X109945000Y-101405000D02*
G75*
G02X108675000Y-102675000I-1270000J0D01*
G01*
X108675000Y-96325000D02*
G75*
G02X109945000Y-97595000I0J-1270000D01*
G01*
X97562500Y-101659000D02*
G75*
G02X97816500Y-101405000I254000J0D01*
G01*
X97816500Y-100135000D02*
G75*
G02X97562500Y-99881000I0J254000D01*
G01*
X97562500Y-99119000D02*
G75*
G02X97816500Y-98865000I254000J0D01*
G01*
X97816500Y-97595000D02*
G75*
G02X97562500Y-97341000I0J254000D01*
G01*
D15*
X155805119Y-67144904D02*
X154789119Y-67144904D01*
X154789119Y-66757857D01*
X154837500Y-66661095D01*
X154885881Y-66612714D01*
X154982643Y-66564333D01*
X155127786Y-66564333D01*
X155224548Y-66612714D01*
X155272929Y-66661095D01*
X155321310Y-66757857D01*
X155321310Y-67144904D01*
X155127786Y-65693476D02*
X155805119Y-65693476D01*
X154740738Y-65935380D02*
X155466452Y-66177285D01*
X155466452Y-65548333D01*
X133309186Y-69563952D02*
X133347890Y-69602657D01*
X133386595Y-69718771D01*
X133386595Y-69796181D01*
X133347890Y-69912295D01*
X133270481Y-69989704D01*
X133193071Y-70028409D01*
X133038252Y-70067114D01*
X132922138Y-70067114D01*
X132767319Y-70028409D01*
X132689910Y-69989704D01*
X132612500Y-69912295D01*
X132573795Y-69796181D01*
X132573795Y-69718771D01*
X132612500Y-69602657D01*
X132651205Y-69563952D01*
X132573795Y-69060790D02*
X132573795Y-68905971D01*
X132612500Y-68828562D01*
X132689910Y-68751152D01*
X132844729Y-68712447D01*
X133115662Y-68712447D01*
X133270481Y-68751152D01*
X133347890Y-68828562D01*
X133386595Y-68905971D01*
X133386595Y-69060790D01*
X133347890Y-69138200D01*
X133270481Y-69215609D01*
X133115662Y-69254314D01*
X132844729Y-69254314D01*
X132689910Y-69215609D01*
X132612500Y-69138200D01*
X132573795Y-69060790D01*
X133386595Y-68364104D02*
X132573795Y-68364104D01*
X133386595Y-67899647D01*
X132573795Y-67899647D01*
X133386595Y-67512599D02*
X132573795Y-67512599D01*
X133386595Y-67048142D01*
X132573795Y-67048142D01*
X133464005Y-66854618D02*
X133464005Y-66235342D01*
X132573795Y-65886999D02*
X132573795Y-65809590D01*
X132612500Y-65732180D01*
X132651205Y-65693475D01*
X132728614Y-65654771D01*
X132883433Y-65616066D01*
X133076957Y-65616066D01*
X133231776Y-65654771D01*
X133309186Y-65693475D01*
X133347890Y-65732180D01*
X133386595Y-65809590D01*
X133386595Y-65886999D01*
X133347890Y-65964409D01*
X133309186Y-66003113D01*
X133231776Y-66041818D01*
X133076957Y-66080523D01*
X132883433Y-66080523D01*
X132728614Y-66041818D01*
X132651205Y-66003113D01*
X132612500Y-65964409D01*
X132573795Y-65886999D01*
X133386595Y-64841971D02*
X133386595Y-65306428D01*
X133386595Y-65074199D02*
X132573795Y-65074199D01*
X132689910Y-65151609D01*
X132767319Y-65229018D01*
X132806024Y-65306428D01*
X132573795Y-64571038D02*
X133386595Y-64029171D01*
X132573795Y-64029171D02*
X133386595Y-64571038D01*
X132573795Y-63564714D02*
X132573795Y-63487305D01*
X132612500Y-63409895D01*
X132651205Y-63371190D01*
X132728614Y-63332486D01*
X132883433Y-63293781D01*
X133076957Y-63293781D01*
X133231776Y-63332486D01*
X133309186Y-63371190D01*
X133347890Y-63409895D01*
X133386595Y-63487305D01*
X133386595Y-63564714D01*
X133347890Y-63642124D01*
X133309186Y-63680828D01*
X133231776Y-63719533D01*
X133076957Y-63758238D01*
X132883433Y-63758238D01*
X132728614Y-63719533D01*
X132651205Y-63680828D01*
X132612500Y-63642124D01*
X132573795Y-63564714D01*
X132573795Y-63022848D02*
X132573795Y-62480981D01*
X133386595Y-62829324D01*
X214505667Y-111912619D02*
X214021858Y-111912619D01*
X214021858Y-110896619D01*
X215376524Y-111912619D02*
X214795953Y-111912619D01*
X215086239Y-111912619D02*
X215086239Y-110896619D01*
X214989477Y-111041762D01*
X214892715Y-111138524D01*
X214795953Y-111186905D01*
X213963801Y-100746295D02*
X213808982Y-100746295D01*
X213731572Y-100785000D01*
X213692867Y-100823705D01*
X213615458Y-100939819D01*
X213576753Y-101094638D01*
X213576753Y-101404276D01*
X213615458Y-101481686D01*
X213654163Y-101520390D01*
X213731572Y-101559095D01*
X213886391Y-101559095D01*
X213963801Y-101520390D01*
X214002505Y-101481686D01*
X214041210Y-101404276D01*
X214041210Y-101210752D01*
X214002505Y-101133343D01*
X213963801Y-101094638D01*
X213886391Y-101055933D01*
X213731572Y-101055933D01*
X213654163Y-101094638D01*
X213615458Y-101133343D01*
X213576753Y-101210752D01*
X214389553Y-101559095D02*
X214389553Y-101017229D01*
X214389553Y-101094638D02*
X214428258Y-101055933D01*
X214505667Y-101017229D01*
X214621781Y-101017229D01*
X214699191Y-101055933D01*
X214737896Y-101133343D01*
X214737896Y-101559095D01*
X214737896Y-101133343D02*
X214776600Y-101055933D01*
X214854010Y-101017229D01*
X214970124Y-101017229D01*
X215047534Y-101055933D01*
X215086239Y-101133343D01*
X215086239Y-101559095D01*
X215473286Y-101559095D02*
X215473286Y-100746295D01*
X215473286Y-101133343D02*
X215937743Y-101133343D01*
X215937743Y-101559095D02*
X215937743Y-100746295D01*
X149406667Y-129264048D02*
X149588095Y-129324524D01*
X149890476Y-129324524D01*
X150011429Y-129264048D01*
X150071905Y-129203571D01*
X150132381Y-129082619D01*
X150132381Y-128961667D01*
X150071905Y-128840714D01*
X150011429Y-128780238D01*
X149890476Y-128719762D01*
X149648572Y-128659286D01*
X149527619Y-128598810D01*
X149467143Y-128538333D01*
X149406667Y-128417381D01*
X149406667Y-128296429D01*
X149467143Y-128175476D01*
X149527619Y-128115000D01*
X149648572Y-128054524D01*
X149950952Y-128054524D01*
X150132381Y-128115000D01*
X150555715Y-128054524D02*
X150858096Y-129324524D01*
X151100000Y-128417381D01*
X151341905Y-129324524D01*
X151644286Y-128054524D01*
X152793334Y-129324524D02*
X152067620Y-129324524D01*
X152430477Y-129324524D02*
X152430477Y-128054524D01*
X152309525Y-128235952D01*
X152188572Y-128356905D01*
X152067620Y-128417381D01*
X145795477Y-126814048D02*
X145976905Y-126874524D01*
X146279286Y-126874524D01*
X146400239Y-126814048D01*
X146460715Y-126753571D01*
X146521191Y-126632619D01*
X146521191Y-126511667D01*
X146460715Y-126390714D01*
X146400239Y-126330238D01*
X146279286Y-126269762D01*
X146037382Y-126209286D01*
X145916429Y-126148810D01*
X145855953Y-126088333D01*
X145795477Y-125967381D01*
X145795477Y-125846429D01*
X145855953Y-125725476D01*
X145916429Y-125665000D01*
X146037382Y-125604524D01*
X146339762Y-125604524D01*
X146521191Y-125665000D01*
X146944525Y-126027857D02*
X147186429Y-126874524D01*
X147428334Y-126269762D01*
X147670239Y-126874524D01*
X147912144Y-126027857D01*
X148395953Y-126874524D02*
X148395953Y-126027857D01*
X148395953Y-125604524D02*
X148335477Y-125665000D01*
X148395953Y-125725476D01*
X148456429Y-125665000D01*
X148395953Y-125604524D01*
X148395953Y-125725476D01*
X148819286Y-126027857D02*
X149303096Y-126027857D01*
X149000715Y-125604524D02*
X149000715Y-126693095D01*
X149061191Y-126814048D01*
X149182144Y-126874524D01*
X149303096Y-126874524D01*
X150270715Y-126814048D02*
X150149762Y-126874524D01*
X149907858Y-126874524D01*
X149786905Y-126814048D01*
X149726429Y-126753571D01*
X149665953Y-126632619D01*
X149665953Y-126269762D01*
X149726429Y-126148810D01*
X149786905Y-126088333D01*
X149907858Y-126027857D01*
X150149762Y-126027857D01*
X150270715Y-126088333D01*
X150815000Y-126874524D02*
X150815000Y-125604524D01*
X151359286Y-126874524D02*
X151359286Y-126209286D01*
X151298809Y-126088333D01*
X151177857Y-126027857D01*
X150996429Y-126027857D01*
X150875476Y-126088333D01*
X150815000Y-126148810D01*
X151661667Y-126995476D02*
X152629286Y-126995476D01*
X152931667Y-126874524D02*
X152931667Y-125604524D01*
X153234048Y-125604524D01*
X153415476Y-125665000D01*
X153536429Y-125785952D01*
X153596905Y-125906905D01*
X153657381Y-126148810D01*
X153657381Y-126330238D01*
X153596905Y-126572143D01*
X153536429Y-126693095D01*
X153415476Y-126814048D01*
X153234048Y-126874524D01*
X152931667Y-126874524D01*
X154201667Y-126874524D02*
X154201667Y-125604524D01*
X154685476Y-125604524D01*
X154806429Y-125665000D01*
X154866905Y-125725476D01*
X154927381Y-125846429D01*
X154927381Y-126027857D01*
X154866905Y-126148810D01*
X154806429Y-126209286D01*
X154685476Y-126269762D01*
X154201667Y-126269762D01*
X155411191Y-126814048D02*
X155592619Y-126874524D01*
X155895000Y-126874524D01*
X156015953Y-126814048D01*
X156076429Y-126753571D01*
X156136905Y-126632619D01*
X156136905Y-126511667D01*
X156076429Y-126390714D01*
X156015953Y-126330238D01*
X155895000Y-126269762D01*
X155653096Y-126209286D01*
X155532143Y-126148810D01*
X155471667Y-126088333D01*
X155411191Y-125967381D01*
X155411191Y-125846429D01*
X155471667Y-125725476D01*
X155532143Y-125665000D01*
X155653096Y-125604524D01*
X155955476Y-125604524D01*
X156136905Y-125665000D01*
X156499762Y-125604524D02*
X157225477Y-125604524D01*
X156862620Y-126874524D02*
X156862620Y-125604524D01*
X96982857Y-84005371D02*
X96922381Y-84065848D01*
X96740952Y-84126324D01*
X96620000Y-84126324D01*
X96438572Y-84065848D01*
X96317619Y-83944895D01*
X96257143Y-83823943D01*
X96196667Y-83582038D01*
X96196667Y-83400610D01*
X96257143Y-83158705D01*
X96317619Y-83037752D01*
X96438572Y-82916800D01*
X96620000Y-82856324D01*
X96740952Y-82856324D01*
X96922381Y-82916800D01*
X96982857Y-82977276D01*
X97769048Y-82856324D02*
X98010952Y-82856324D01*
X98131905Y-82916800D01*
X98252857Y-83037752D01*
X98313333Y-83279657D01*
X98313333Y-83702990D01*
X98252857Y-83944895D01*
X98131905Y-84065848D01*
X98010952Y-84126324D01*
X97769048Y-84126324D01*
X97648095Y-84065848D01*
X97527143Y-83944895D01*
X97466667Y-83702990D01*
X97466667Y-83279657D01*
X97527143Y-83037752D01*
X97648095Y-82916800D01*
X97769048Y-82856324D01*
X98857619Y-84126324D02*
X98857619Y-82856324D01*
X99583333Y-84126324D01*
X99583333Y-82856324D01*
X100853333Y-84126324D02*
X100127619Y-84126324D01*
X100490476Y-84126324D02*
X100490476Y-82856324D01*
X100369524Y-83037752D01*
X100248571Y-83158705D01*
X100127619Y-83219181D01*
X92689048Y-73603467D02*
X93293810Y-73603467D01*
X92568095Y-73966324D02*
X92991429Y-72696324D01*
X93414762Y-73966324D01*
X93656666Y-72696324D02*
X94080000Y-73966324D01*
X94503333Y-72696324D01*
X95652380Y-73966324D02*
X95229047Y-73361562D01*
X94926666Y-73966324D02*
X94926666Y-72696324D01*
X95410475Y-72696324D01*
X95531428Y-72756800D01*
X95591904Y-72817276D01*
X95652380Y-72938229D01*
X95652380Y-73119657D01*
X95591904Y-73240610D01*
X95531428Y-73301086D01*
X95410475Y-73361562D01*
X94926666Y-73361562D01*
X96196666Y-73482514D02*
X97164285Y-73482514D01*
X97769047Y-73966324D02*
X97769047Y-72696324D01*
X98313333Y-73905848D02*
X98494761Y-73966324D01*
X98797142Y-73966324D01*
X98918095Y-73905848D01*
X98978571Y-73845371D01*
X99039047Y-73724419D01*
X99039047Y-73603467D01*
X98978571Y-73482514D01*
X98918095Y-73422038D01*
X98797142Y-73361562D01*
X98555238Y-73301086D01*
X98434285Y-73240610D01*
X98373809Y-73180133D01*
X98313333Y-73059181D01*
X98313333Y-72938229D01*
X98373809Y-72817276D01*
X98434285Y-72756800D01*
X98555238Y-72696324D01*
X98857618Y-72696324D01*
X99039047Y-72756800D01*
X99583333Y-73966324D02*
X99583333Y-72696324D01*
X100067142Y-72696324D01*
X100188095Y-72756800D01*
X100248571Y-72817276D01*
X100309047Y-72938229D01*
X100309047Y-73119657D01*
X100248571Y-73240610D01*
X100188095Y-73301086D01*
X100067142Y-73361562D01*
X99583333Y-73361562D01*
X100853333Y-73482514D02*
X101820952Y-73482514D01*
X102970000Y-72696324D02*
X102728095Y-72696324D01*
X102607143Y-72756800D01*
X102546666Y-72817276D01*
X102425714Y-72998705D01*
X102365238Y-73240610D01*
X102365238Y-73724419D01*
X102425714Y-73845371D01*
X102486190Y-73905848D01*
X102607143Y-73966324D01*
X102849047Y-73966324D01*
X102970000Y-73905848D01*
X103030476Y-73845371D01*
X103090952Y-73724419D01*
X103090952Y-73422038D01*
X103030476Y-73301086D01*
X102970000Y-73240610D01*
X102849047Y-73180133D01*
X102607143Y-73180133D01*
X102486190Y-73240610D01*
X102425714Y-73301086D01*
X102365238Y-73422038D01*
X219946619Y-113724333D02*
X219946619Y-114208142D01*
X218930619Y-114208142D01*
X219027381Y-113434047D02*
X218979000Y-113385666D01*
X218930619Y-113288904D01*
X218930619Y-113047000D01*
X218979000Y-112950238D01*
X219027381Y-112901857D01*
X219124143Y-112853476D01*
X219220905Y-112853476D01*
X219366048Y-112901857D01*
X219946619Y-113482428D01*
X219946619Y-112853476D01*
X223962305Y-113490914D02*
X223923600Y-113452209D01*
X223884895Y-113374800D01*
X223884895Y-113181276D01*
X223923600Y-113103866D01*
X223962305Y-113065162D01*
X224039714Y-113026457D01*
X224117124Y-113026457D01*
X224233238Y-113065162D01*
X224697695Y-113529619D01*
X224697695Y-113026457D01*
X223884895Y-112291067D02*
X223884895Y-112678114D01*
X224271943Y-112716819D01*
X224233238Y-112678114D01*
X224194533Y-112600705D01*
X224194533Y-112407181D01*
X224233238Y-112329771D01*
X224271943Y-112291067D01*
X224349352Y-112252362D01*
X224542876Y-112252362D01*
X224620286Y-112291067D01*
X224658990Y-112329771D01*
X224697695Y-112407181D01*
X224697695Y-112600705D01*
X224658990Y-112678114D01*
X224620286Y-112716819D01*
X224658990Y-110936400D02*
X224697695Y-111013810D01*
X224697695Y-111168629D01*
X224658990Y-111246038D01*
X224620286Y-111284743D01*
X224542876Y-111323448D01*
X224310648Y-111323448D01*
X224233238Y-111284743D01*
X224194533Y-111246038D01*
X224155829Y-111168629D01*
X224155829Y-111013810D01*
X224194533Y-110936400D01*
X224697695Y-110588057D02*
X224155829Y-110588057D01*
X223884895Y-110588057D02*
X223923600Y-110626762D01*
X223962305Y-110588057D01*
X223923600Y-110549352D01*
X223884895Y-110588057D01*
X223962305Y-110588057D01*
X224697695Y-110201009D02*
X224155829Y-110201009D01*
X224310648Y-110201009D02*
X224233238Y-110162304D01*
X224194533Y-110123600D01*
X224155829Y-110046190D01*
X224155829Y-109968781D01*
X224658990Y-109349504D02*
X224697695Y-109426914D01*
X224697695Y-109581733D01*
X224658990Y-109659142D01*
X224620286Y-109697847D01*
X224542876Y-109736552D01*
X224310648Y-109736552D01*
X224233238Y-109697847D01*
X224194533Y-109659142D01*
X224155829Y-109581733D01*
X224155829Y-109426914D01*
X224194533Y-109349504D01*
X224697695Y-108885047D02*
X224658990Y-108962456D01*
X224581581Y-109001161D01*
X223884895Y-109001161D01*
X224658990Y-108265771D02*
X224697695Y-108343181D01*
X224697695Y-108498000D01*
X224658990Y-108575409D01*
X224581581Y-108614114D01*
X224271943Y-108614114D01*
X224194533Y-108575409D01*
X224155829Y-108498000D01*
X224155829Y-108343181D01*
X224194533Y-108265771D01*
X224271943Y-108227066D01*
X224349352Y-108227066D01*
X224426762Y-108614114D01*
X224658990Y-107917428D02*
X224697695Y-107840018D01*
X224697695Y-107685199D01*
X224658990Y-107607790D01*
X224581581Y-107569085D01*
X224542876Y-107569085D01*
X224465467Y-107607790D01*
X224426762Y-107685199D01*
X224426762Y-107801314D01*
X224388057Y-107878723D01*
X224310648Y-107917428D01*
X224271943Y-107917428D01*
X224194533Y-107878723D01*
X224155829Y-107801314D01*
X224155829Y-107685199D01*
X224194533Y-107607790D01*
X98091667Y-114269524D02*
X98091667Y-115176667D01*
X98031191Y-115358095D01*
X97910239Y-115479048D01*
X97728810Y-115539524D01*
X97607858Y-115539524D01*
X99361667Y-115539524D02*
X98635953Y-115539524D01*
X98998810Y-115539524D02*
X98998810Y-114269524D01*
X98877858Y-114450952D01*
X98756905Y-114571905D01*
X98635953Y-114632381D01*
X95793572Y-102839524D02*
X95793572Y-103746667D01*
X95733096Y-103928095D01*
X95612144Y-104049048D01*
X95430715Y-104109524D01*
X95309763Y-104109524D01*
X96337858Y-103746667D02*
X96942620Y-103746667D01*
X96216905Y-104109524D02*
X96640239Y-102839524D01*
X97063572Y-104109524D01*
X98212619Y-103988571D02*
X98152143Y-104049048D01*
X97970714Y-104109524D01*
X97849762Y-104109524D01*
X97668334Y-104049048D01*
X97547381Y-103928095D01*
X97486905Y-103807143D01*
X97426429Y-103565238D01*
X97426429Y-103383810D01*
X97486905Y-103141905D01*
X97547381Y-103020952D01*
X97668334Y-102900000D01*
X97849762Y-102839524D01*
X97970714Y-102839524D01*
X98152143Y-102900000D01*
X98212619Y-102960476D01*
X98756905Y-104109524D02*
X98756905Y-102839524D01*
X99482619Y-104109524D02*
X98938334Y-103383810D01*
X99482619Y-102839524D02*
X98756905Y-103565238D01*
X99724524Y-104230476D02*
X100692143Y-104230476D01*
X100934048Y-102960476D02*
X100994524Y-102900000D01*
X101115476Y-102839524D01*
X101417857Y-102839524D01*
X101538810Y-102900000D01*
X101599286Y-102960476D01*
X101659762Y-103081429D01*
X101659762Y-103202381D01*
X101599286Y-103383810D01*
X100873572Y-104109524D01*
X101659762Y-104109524D01*
X102204048Y-104109524D02*
X102204048Y-102839524D01*
X102687857Y-102839524D01*
X102808810Y-102900000D01*
X102869286Y-102960476D01*
X102929762Y-103081429D01*
X102929762Y-103262857D01*
X102869286Y-103383810D01*
X102808810Y-103444286D01*
X102687857Y-103504762D01*
X102204048Y-103504762D01*
X102925096Y-104912619D02*
X102925096Y-103896619D01*
X103312143Y-103896619D01*
X103408905Y-103945000D01*
X103457286Y-103993381D01*
X103505667Y-104090143D01*
X103505667Y-104235286D01*
X103457286Y-104332048D01*
X103408905Y-104380429D01*
X103312143Y-104428810D01*
X102925096Y-104428810D01*
X103892715Y-103993381D02*
X103941096Y-103945000D01*
X104037858Y-103896619D01*
X104279762Y-103896619D01*
X104376524Y-103945000D01*
X104424905Y-103993381D01*
X104473286Y-104090143D01*
X104473286Y-104186905D01*
X104424905Y-104332048D01*
X103844334Y-104912619D01*
X104473286Y-104912619D01*
X100002886Y-94481686D02*
X99964181Y-94520390D01*
X99848067Y-94559095D01*
X99770657Y-94559095D01*
X99654543Y-94520390D01*
X99577134Y-94442981D01*
X99538429Y-94365571D01*
X99499724Y-94210752D01*
X99499724Y-94094638D01*
X99538429Y-93939819D01*
X99577134Y-93862410D01*
X99654543Y-93785000D01*
X99770657Y-93746295D01*
X99848067Y-93746295D01*
X99964181Y-93785000D01*
X100002886Y-93823705D01*
X100506048Y-93746295D02*
X100660867Y-93746295D01*
X100738276Y-93785000D01*
X100815686Y-93862410D01*
X100854391Y-94017229D01*
X100854391Y-94288162D01*
X100815686Y-94442981D01*
X100738276Y-94520390D01*
X100660867Y-94559095D01*
X100506048Y-94559095D01*
X100428638Y-94520390D01*
X100351229Y-94442981D01*
X100312524Y-94288162D01*
X100312524Y-94017229D01*
X100351229Y-93862410D01*
X100428638Y-93785000D01*
X100506048Y-93746295D01*
X101202734Y-94559095D02*
X101202734Y-93746295D01*
X101667191Y-94559095D01*
X101667191Y-93746295D01*
X102054239Y-94559095D02*
X102054239Y-93746295D01*
X102518696Y-94559095D01*
X102518696Y-93746295D01*
X102712220Y-94636505D02*
X103331496Y-94636505D01*
X103795953Y-94133343D02*
X103912067Y-94172048D01*
X103950772Y-94210752D01*
X103989477Y-94288162D01*
X103989477Y-94404276D01*
X103950772Y-94481686D01*
X103912067Y-94520390D01*
X103834658Y-94559095D01*
X103525020Y-94559095D01*
X103525020Y-93746295D01*
X103795953Y-93746295D01*
X103873363Y-93785000D01*
X103912067Y-93823705D01*
X103950772Y-93901114D01*
X103950772Y-93978524D01*
X103912067Y-94055933D01*
X103873363Y-94094638D01*
X103795953Y-94133343D01*
X103525020Y-94133343D01*
X104299115Y-94326867D02*
X104686163Y-94326867D01*
X104221706Y-94559095D02*
X104492639Y-93746295D01*
X104763572Y-94559095D01*
X104918392Y-93746295D02*
X105382849Y-93746295D01*
X105150620Y-94559095D02*
X105150620Y-93746295D01*
X105460258Y-94636505D02*
X106079534Y-94636505D01*
X106273058Y-94133343D02*
X106543991Y-94133343D01*
X106660105Y-94559095D02*
X106273058Y-94559095D01*
X106273058Y-93746295D01*
X106660105Y-93746295D01*
X106931038Y-93746295D02*
X107472905Y-94559095D01*
X107472905Y-93746295D02*
X106931038Y-94559095D01*
X107666429Y-93746295D02*
X108130886Y-93746295D01*
X107898657Y-94559095D02*
X107898657Y-93746295D01*
X199399524Y-87467619D02*
X200427619Y-87467619D01*
X200548571Y-87407143D01*
X200609048Y-87346667D01*
X200669524Y-87225714D01*
X200669524Y-86983810D01*
X200609048Y-86862857D01*
X200548571Y-86802381D01*
X200427619Y-86741905D01*
X199399524Y-86741905D01*
X199520476Y-86197619D02*
X199460000Y-86137143D01*
X199399524Y-86016191D01*
X199399524Y-85713810D01*
X199460000Y-85592857D01*
X199520476Y-85532381D01*
X199641429Y-85471905D01*
X199762381Y-85471905D01*
X199943810Y-85532381D01*
X200669524Y-86258095D01*
X200669524Y-85471905D01*
X183524524Y-89493571D02*
X183524524Y-88707381D01*
X184008333Y-89130714D01*
X184008333Y-88949286D01*
X184068810Y-88828333D01*
X184129286Y-88767857D01*
X184250238Y-88707381D01*
X184552619Y-88707381D01*
X184673571Y-88767857D01*
X184734048Y-88828333D01*
X184794524Y-88949286D01*
X184794524Y-89312143D01*
X184734048Y-89433095D01*
X184673571Y-89493571D01*
X184734048Y-88102619D02*
X184794524Y-88102619D01*
X184915476Y-88163095D01*
X184975952Y-88223571D01*
X183524524Y-87679285D02*
X183524524Y-86832619D01*
X184794524Y-87376904D01*
X183524524Y-85562619D02*
X184794524Y-85139285D01*
X183524524Y-84715952D01*
M02*
