M48
;DRILL file {KiCad 4.0.2-stable} date 27/06/2016 23:08:41
;FORMAT={-:-/ absolute / inch / decimal}
FMAT,2
INCH,TZ
T1C0.016
T2C0.020
T3C0.022
T4C0.025
T5C0.032
T6C0.032
T7C0.035
T8C0.039
T9C0.040
T10C0.043
T11C0.043
T12C0.098
T13C0.118
T14C0.118
T15C0.157
%
G90
G05
M72
T1
X4.1029Y-3.5513
X4.3504Y-3.3661
X4.5569Y-3.9658
X4.7047Y-3.3366
X4.7232Y-5.0543
X4.8162Y-2.9846
X4.9028Y-2.9383
X4.9597Y-3.9803
X4.9606Y-3.622
X5.0528Y-4.8409
X5.0831Y-4.7157
X5.1154Y-5.0465
X5.1256Y-3.669
X5.1575Y-4.0551
X5.3485Y-3.9885
X5.3862Y-3.6642
X5.4153Y-3.7801
X5.4386Y-4.6776
X5.4387Y-4.0468
X5.5055Y-4.7114
X5.6332Y-4.5311
X5.7283Y-3.5827
X5.9287Y-3.4647
X5.939Y-3.8417
X5.9622Y-3.8134
X5.9633Y-3.6278
X5.9655Y-3.4898
X5.9915Y-3.414
X6.0078Y-3.6358
X6.0807Y-4.2614
X6.0876Y-3.4854
X6.1024Y-4.8425
X6.1598Y-3.3711
X6.165Y-3.0031
X6.1722Y-3.9389
X6.2197Y-3.6815
X6.2642Y-3.687
X6.2921Y-3.3244
X6.3315Y-3.672
X6.387Y-2.9717
X6.4008Y-3.8457
X6.5413Y-4.178
X6.8248Y-3.7039
X6.9976Y-4.1925
X7.1793Y-2.8279
X7.1889Y-2.5138
X7.839Y-4.2118
X7.874Y-3.937
X7.9134Y-2.9882
X8.0906Y-2.552
X8.1346Y-3.235
X8.1354Y-2.9087
X8.2583Y-3.4217
X8.2807Y-3.8665
X8.3395Y-3.1601
X8.3665Y-3.7807
X8.376Y-2.8839
X8.3953Y-2.4256
X8.565Y-2.7783
X8.6378Y-2.9144
X8.689Y-3.1504
X8.6929Y-3.2689
X8.7524Y-2.9154
X8.8453Y-3.265
X8.9Y-2.9173
X8.9583Y-3.1528
T4
X6.9627Y-3.4055
X7.75Y-3.4055
T5
X6.448Y-3.2519
X6.448Y-3.4441
T6
X8.6173Y-2.3756
X8.6173Y-2.4756
T7
X8.7508Y-5.0138
X8.9476Y-5.0138
T8
X6.0614Y-4.626
X6.1614Y-4.626
T9
X4.0039Y-2.9894
X4.0039Y-3.0894
X4.0039Y-3.1894
X4.1039Y-2.9894
X4.1039Y-3.0894
X4.1039Y-3.1894
T10
X3.8535Y-3.8673
X3.8535Y-3.9673
X4.2567Y-3.8673
X4.2567Y-3.9673
X5.3835Y-2.439
X5.4835Y-2.439
X5.5835Y-2.439
X5.6835Y-2.439
X5.7835Y-2.439
X5.8835Y-2.439
X5.9835Y-2.439
X8.6268Y-4.1429
X8.6268Y-4.2429
X8.7862Y-4.6457
X8.8862Y-4.6457
T11
X5.3107Y-4.5247
X5.3107Y-5.0955
X5.4092Y-4.5247
X5.5076Y-4.5247
X5.5076Y-5.0955
T12
X5.1651Y-4.8199
X5.6533Y-4.8199
T13
X4.0354Y-4.3012
X4.1535Y-4.4901
X4.2755Y-4.3012
T14
X6.5768Y-4.4646
X6.5787Y-5.0709
X8.4331Y-5.0748
X8.437Y-4.4646
T15
X7.4213Y-2.6437
T2
X3.8401Y-3.3661G85X3.8657Y-3.3661
G05
X3.8401Y-3.6417G85X3.8657Y-3.6417
G05
T3
X3.9592Y-3.3996G85X3.9592Y-3.4114
G05
X3.9592Y-3.5964G85X3.9592Y-3.6082
G05
T0
M30
