G04 #@! TF.FileFunction,Soldermask,Top*
%FSLAX46Y46*%
G04 Gerber Fmt 4.6, Leading zero omitted, Abs format (unit mm)*
G04 Created by KiCad (PCBNEW 4.0.2-stable) date 27/06/2016 23:08:48*
%MOMM*%
G01*
G04 APERTURE LIST*
%ADD10C,0.100000*%
%ADD11O,1.638300X3.276600*%
%ADD12O,3.276600X1.638300*%
%ADD13C,3.000000*%
%ADD14R,1.500000X1.250000*%
%ADD15R,1.250000X1.500000*%
%ADD16R,3.149600X1.800860*%
%ADD17R,1.800860X3.149600*%
%ADD18R,1.400000X1.400000*%
%ADD19C,1.400000*%
%ADD20R,2.000000X2.000000*%
%ADD21C,2.000000*%
%ADD22C,1.750000*%
%ADD23O,4.000000X4.000000*%
%ADD24R,1.600000X0.550000*%
%ADD25R,0.550000X1.600000*%
%ADD26R,1.350000X0.400000*%
%ADD27O,0.950000X1.250000*%
%ADD28O,1.550000X1.000000*%
%ADD29R,0.800100X1.800860*%
%ADD30R,1.800860X0.800100*%
%ADD31R,1.300000X1.500000*%
%ADD32R,1.500000X1.300000*%
%ADD33R,2.000000X1.700000*%
%ADD34R,0.600000X1.500000*%
%ADD35R,1.550000X0.600000*%
%ADD36R,1.060000X0.650000*%
%ADD37R,3.657600X2.032000*%
%ADD38R,1.016000X2.032000*%
%ADD39R,1.549400X1.297940*%
%ADD40C,1.501140*%
%ADD41R,2.000000X1.000000*%
%ADD42C,4.000000*%
%ADD43C,1.524000*%
%ADD44C,4.699000*%
%ADD45R,2.499360X1.800860*%
%ADD46C,1.155700*%
%ADD47R,1.800860X2.499360*%
%ADD48C,1.270000*%
%ADD49R,8.000000X3.600000*%
G04 APERTURE END LIST*
D10*
D11*
X151980000Y-61950000D03*
X149440000Y-61950000D03*
X146900000Y-61950000D03*
X144360000Y-61950000D03*
X141820000Y-61950000D03*
X139280000Y-61950000D03*
X136740000Y-61950000D03*
D12*
X219120000Y-107770000D03*
X219120000Y-105230000D03*
D13*
X167050000Y-113400000D03*
X167100000Y-128800000D03*
X214200000Y-128900000D03*
X214300000Y-113400000D03*
D14*
X219750000Y-66000000D03*
X217250000Y-66000000D03*
D15*
X215000000Y-60250000D03*
X215000000Y-62750000D03*
D14*
X211750000Y-85500000D03*
X214250000Y-85500000D03*
D16*
X119375980Y-104250000D03*
X115124020Y-104250000D03*
D15*
X210000000Y-77750000D03*
X210000000Y-80250000D03*
D17*
X220980000Y-91054020D03*
X220980000Y-95305980D03*
D16*
X118529120Y-89521900D03*
X122781080Y-89521900D03*
D14*
X224750000Y-85500000D03*
X227250000Y-85500000D03*
D18*
X227270000Y-127350000D03*
D19*
X222270000Y-127350000D03*
D15*
X227630000Y-72830000D03*
X227630000Y-70330000D03*
D17*
X226980000Y-91054020D03*
X226980000Y-95305980D03*
D16*
X120125980Y-95250000D03*
X115874020Y-95250000D03*
D17*
X141185000Y-89651880D03*
X141185000Y-85399920D03*
D15*
X141693700Y-101890000D03*
X141693700Y-99390000D03*
D14*
X170090000Y-80100000D03*
X167590000Y-80100000D03*
X167620000Y-83320000D03*
X170120000Y-83320000D03*
D20*
X156500000Y-117500000D03*
D21*
X153960000Y-117500000D03*
D22*
X139892900Y-114926300D03*
X134892900Y-114926300D03*
X137392900Y-114926300D03*
X134892900Y-129426300D03*
X139892900Y-129426300D03*
D23*
X131192900Y-122426300D03*
X143592900Y-122426300D03*
D24*
X156250000Y-92300000D03*
X156250000Y-91500000D03*
X156250000Y-90700000D03*
X156250000Y-89900000D03*
X156250000Y-89100000D03*
X156250000Y-88300000D03*
X156250000Y-87500000D03*
X156250000Y-86700000D03*
D25*
X154800000Y-85250000D03*
X154000000Y-85250000D03*
X153200000Y-85250000D03*
X152400000Y-85250000D03*
X151600000Y-85250000D03*
X150800000Y-85250000D03*
X150000000Y-85250000D03*
X149200000Y-85250000D03*
D24*
X147750000Y-86700000D03*
X147750000Y-87500000D03*
X147750000Y-88300000D03*
X147750000Y-89100000D03*
X147750000Y-89900000D03*
X147750000Y-90700000D03*
X147750000Y-91500000D03*
X147750000Y-92300000D03*
D25*
X149200000Y-93750000D03*
X150000000Y-93750000D03*
X150800000Y-93750000D03*
X151600000Y-93750000D03*
X152400000Y-93750000D03*
X153200000Y-93750000D03*
X154000000Y-93750000D03*
X154800000Y-93750000D03*
D26*
X100562540Y-87699100D03*
X100562540Y-88349100D03*
X100562540Y-88999100D03*
X100562540Y-89649100D03*
X100562540Y-90299100D03*
D27*
X100562540Y-86499100D03*
X100562540Y-91499100D03*
D28*
X97862540Y-85499100D03*
X97862540Y-92499100D03*
D29*
X204050000Y-93501140D03*
X205950000Y-93501140D03*
X205000000Y-90498860D03*
X211550000Y-93501140D03*
X213450000Y-93501140D03*
X212500000Y-90498860D03*
X194550000Y-103001140D03*
X196450000Y-103001140D03*
X195500000Y-99998860D03*
X186990100Y-102749540D03*
X188890100Y-102749540D03*
X187940100Y-99747260D03*
D30*
X139135240Y-106273200D03*
X139135240Y-104373200D03*
X136132960Y-105323200D03*
X148751140Y-104700000D03*
X148751140Y-102800000D03*
X145748860Y-103750000D03*
D31*
X205500000Y-77650000D03*
X205500000Y-80350000D03*
D32*
X209150000Y-62000000D03*
X211850000Y-62000000D03*
D31*
X206000000Y-62850000D03*
X206000000Y-60150000D03*
X227540000Y-75260000D03*
X227540000Y-77960000D03*
X154540000Y-109910000D03*
X154540000Y-112610000D03*
X201000000Y-80350000D03*
X201000000Y-77650000D03*
X224270000Y-75080000D03*
X224270000Y-72380000D03*
D32*
X205150000Y-85500000D03*
X207850000Y-85500000D03*
X218150000Y-85500000D03*
X220850000Y-85500000D03*
X112319500Y-79762100D03*
X109619500Y-79762100D03*
X194330000Y-107020000D03*
X197030000Y-107020000D03*
D31*
X202000000Y-99850000D03*
X202000000Y-97150000D03*
D32*
X207650000Y-99500000D03*
X210350000Y-99500000D03*
X187150000Y-106394600D03*
X189850000Y-106394600D03*
X124330000Y-119100000D03*
X121630000Y-119100000D03*
X128760000Y-114720000D03*
X126060000Y-114720000D03*
X118270000Y-128400000D03*
X115570000Y-128400000D03*
X180150000Y-106450000D03*
X182850000Y-106450000D03*
X140850000Y-109000000D03*
X138150000Y-109000000D03*
X153150000Y-105250000D03*
X155850000Y-105250000D03*
D31*
X128250000Y-90400000D03*
X128250000Y-93100000D03*
X128250000Y-97150000D03*
X128250000Y-99850000D03*
X133500000Y-90400000D03*
X133500000Y-93100000D03*
X133500000Y-97400000D03*
X133500000Y-100100000D03*
X119000000Y-77650000D03*
X119000000Y-80350000D03*
D32*
X155871000Y-101297700D03*
X153171000Y-101297700D03*
D33*
X125750000Y-83250000D03*
X121750000Y-83250000D03*
D32*
X176850000Y-75000000D03*
X174150000Y-75000000D03*
X171060000Y-93980000D03*
X168360000Y-93980000D03*
X171100000Y-90990000D03*
X168400000Y-90990000D03*
X171060000Y-88290000D03*
X168360000Y-88290000D03*
X157860000Y-121200000D03*
X155160000Y-121200000D03*
D34*
X211810000Y-66800000D03*
X210540000Y-66800000D03*
X209270000Y-66800000D03*
X208000000Y-66800000D03*
X206730000Y-66800000D03*
X205460000Y-66800000D03*
X204190000Y-66800000D03*
X204190000Y-72200000D03*
X205460000Y-72200000D03*
X206730000Y-72200000D03*
X208000000Y-72200000D03*
X209270000Y-72200000D03*
X210540000Y-72200000D03*
X211810000Y-72200000D03*
D35*
X215300000Y-75095000D03*
X215300000Y-76365000D03*
X215300000Y-77635000D03*
X215300000Y-78905000D03*
X220700000Y-78905000D03*
X220700000Y-77635000D03*
X220700000Y-76365000D03*
X220700000Y-75095000D03*
D36*
X122344500Y-78906800D03*
X122344500Y-79856800D03*
X122344500Y-80806800D03*
X124544500Y-80806800D03*
X124544500Y-78906800D03*
D34*
X163655000Y-107630000D03*
X164925000Y-107630000D03*
X166195000Y-107630000D03*
X167465000Y-107630000D03*
X168735000Y-107630000D03*
X170005000Y-107630000D03*
X171275000Y-107630000D03*
X172545000Y-107630000D03*
X172545000Y-98330000D03*
X171275000Y-98330000D03*
X170005000Y-98330000D03*
X168735000Y-98330000D03*
X167465000Y-98330000D03*
X166195000Y-98330000D03*
X164925000Y-98330000D03*
X163655000Y-98330000D03*
D36*
X111900000Y-85550000D03*
X111900000Y-86500000D03*
X111900000Y-87450000D03*
X114100000Y-87450000D03*
X114100000Y-85550000D03*
D37*
X115521500Y-116386100D03*
D38*
X115521500Y-109782100D03*
X113235500Y-109782100D03*
X117807500Y-109782100D03*
D15*
X116250000Y-77500000D03*
X116250000Y-80000000D03*
D32*
X176850000Y-72750000D03*
X174150000Y-72750000D03*
D39*
X154972560Y-128747900D03*
X147027440Y-128747900D03*
X154972560Y-124252100D03*
X147027440Y-124252100D03*
D40*
X163780000Y-82599060D03*
X163780000Y-87480940D03*
D15*
X174500000Y-61250000D03*
X174500000Y-63750000D03*
X177000000Y-61250000D03*
X177000000Y-63750000D03*
X214250000Y-72750000D03*
X214250000Y-70250000D03*
D14*
X199000000Y-103000000D03*
X201500000Y-103000000D03*
D15*
X220750000Y-72750000D03*
X220750000Y-70250000D03*
D41*
X196000000Y-61250000D03*
X180000000Y-61250000D03*
X180000000Y-62750000D03*
X180000000Y-64250000D03*
X180000000Y-65750000D03*
X196000000Y-67250000D03*
X180000000Y-67250000D03*
X180000000Y-68750000D03*
X180000000Y-70250000D03*
X180000000Y-71750000D03*
X180000000Y-73250000D03*
X196000000Y-74750000D03*
X180000000Y-74750000D03*
D42*
X188500000Y-67150000D03*
D43*
X101700000Y-75931800D03*
X104240000Y-75931800D03*
X101700000Y-78471800D03*
X104240000Y-78471800D03*
X101700000Y-81011800D03*
X104240000Y-81011800D03*
D11*
X223170000Y-118000000D03*
X225710000Y-118000000D03*
D44*
X108598800Y-109250000D03*
X105500000Y-114048060D03*
X102500260Y-109250000D03*
D12*
X108120000Y-100770000D03*
X108120000Y-98230000D03*
D45*
X126188980Y-122710000D03*
X122191020Y-122710000D03*
X126718980Y-128360000D03*
X122721020Y-128360000D03*
D46*
X196848880Y-86500000D03*
X176851460Y-86500000D03*
D47*
X107250000Y-91748980D03*
X107250000Y-87751020D03*
D48*
X218880000Y-62880000D03*
X218880000Y-60340000D03*
D49*
X224880000Y-61610000D03*
M02*
